# xmcd
#
# Track frame offsets:
#	150
#	21023
#	40783
#	63019
#	87488
#	101999
#	119707
#	142481
#	166590
#	189387
#	205376
#	226263
#	242630
#	262338
#	282475
#	301149
#	319287
#	337129
#
# Disc length: 4780 seconds
#
# Revision: 1
# Processed by: cddbd v1.5.1PL2 Copyright (c) Steve Scherf et al.
# Submitted via: dBpowerAMP V4.0
#
DISCID=1412aa12
DTITLE=K-Ci and JoJo - All My Life Their Greatest Hits
DYEAR=2005
DGENRE=R&B
TTITLE0=Last Night's Letter
TTITLE1=You Bring Me Up
TTITLE2=How Could You
TTITLE3=All My Life
TTITLE4=Don't Rush (Take Love Slowly)
TTITLE5=If You Think You're Lonely Now
TTITLE6=I Care About You
TTITLE7=Never Say Never Again
TTITLE8=Through Heavens Eyes
TTITLE9=Life
TTITLE10=Tell Me It's Real
TTITLE11=Girl
TTITLE12=Crazy
TTITLE13=Wanna Do You Right
TTITLE14=I Can't Find The Words
TTITLE15=This Very Moment
TTITLE16=Special
TTITLE17=Down For Life
EXTD=
EXTT0=
EXTT1=
EXTT2=
EXTT3=
EXTT4=
EXTT5=
EXTT6=
EXTT7=
EXTT8=
EXTT9=
EXTT10=
EXTT11=
EXTT12=
EXTT13=
EXTT14=
EXTT15=
EXTT16=
EXTT17=
PLAYORDER=
